<svg width="32" height="24" viewBox="0 0 32 24" fill="none" xmlns="http://www.w3.org/2000/svg">
<path fill-rule="evenodd" clip-rule="evenodd" d="M1.6 0H30.4C31.2837 0 32 0.716344 32 1.6V19.2C32 20.0837 31.2837 20.8 30.4 20.8H1.6C0.716344 20.8 0 20.0837 0 19.2V1.6C0 0.716344 0.716344 0 1.6 0Z" fill="url(#paint0_linear_1_157)"/>
<path d="M19 10.0006C19 10.1999 18.817 10.3432 18.817 10.3432L13.6804 13.8784C13.306 14.1511 13 13.9491 13 13.4325V6.56803C13 6.05005 13.306 5.84939 13.681 6.12138L18.8176 9.65792C18.817 9.65792 19 9.80125 19 10.0006Z" fill="#F7B731"/>
<path d="M29.6 22.4H2.4C1.95817 22.4 1.6 22.7582 1.6 23.2C1.6 23.6419 1.95817 24 2.4 24H29.6C30.0418 24 30.4 23.6419 30.4 23.2C30.4 22.7582 30.0418 22.4 29.6 22.4Z" fill="#F7B731"/>
<defs>
<linearGradient id="paint0_linear_1_157" x1="0" y1="10.4" x2="32" y2="10.4" gradientUnits="userSpaceOnUse">
<stop stop-color="#E52D27"/>
<stop offset="1" stop-color="#B31217"/>
</linearGradient>
</defs>
</svg>
