<svg width="28" height="28" viewBox="0 0 28 28" fill="none" xmlns="http://www.w3.org/2000/svg">
<path fill-rule="evenodd" clip-rule="evenodd" d="M2.33333 0H25.6667C26.9553 0 28 1.04467 28 2.33333V25.6667C28 26.9553 26.9553 28 25.6667 28H2.33333C1.04467 28 0 26.9553 0 25.6667V2.33333C0 1.04467 1.04467 0 2.33333 0Z" fill="#F7B731"/>
<path fill-rule="evenodd" clip-rule="evenodd" d="M2.33333 0H25.6667C26.9553 0 28 1.04467 28 2.33333V25.6667C28 26.9553 26.9553 28 25.6667 28H2.33333C1.04467 28 0 26.9553 0 25.6667V2.33333C0 1.04467 1.04467 0 2.33333 0ZM7.77778 3.11111C6.91867 3.11111 6.22222 3.80756 6.22222 4.66667C6.22222 5.52578 6.91867 6.22222 7.77778 6.22222H20.2222C21.0813 6.22222 21.7778 5.52578 21.7778 4.66667C21.7778 3.80756 21.0813 3.11111 20.2222 3.11111H7.77778Z" fill="url(#paint0_linear_1_180)"/>
<path d="M11.7223 13.046L12.5042 13.5936C12.575 13.6432 12.628 13.7144 12.655 13.7965C12.7244 14.0069 12.6101 14.2336 12.3997 14.3029L9.68323 15.1984C9.64625 15.2105 9.60769 15.2173 9.56877 15.2184C9.34737 15.2245 9.16292 15.05 9.1568 14.8286L9.0779 11.9758C9.07552 11.8898 9.1009 11.8052 9.15028 11.7347C9.27732 11.5533 9.52739 11.5092 9.70882 11.6362L10.3556 12.0891C11.5077 11.079 12.9984 10.5 14.5833 10.5C18.1272 10.5 21 13.3728 21 16.9167C21 20.4605 18.1272 23.3333 14.5833 23.3333C11.0395 23.3333 8.16666 20.4605 8.16666 16.9167H9.77082C9.77082 19.5745 11.9255 21.7292 14.5833 21.7292C17.2412 21.7292 19.3958 19.5745 19.3958 16.9167C19.3958 14.2588 17.2412 12.1042 14.5833 12.1042C13.5314 12.1042 12.5361 12.4433 11.7223 13.046Z" fill="#F7B731"/>
<defs>
<linearGradient id="paint0_linear_1_180" x1="0" y1="14" x2="28" y2="14" gradientUnits="userSpaceOnUse">
<stop stop-color="#E52D27"/>
<stop offset="1" stop-color="#B31217"/>
</linearGradient>
</defs>
</svg>
