<svg width="32" height="31" viewBox="0 0 32 31" fill="none" xmlns="http://www.w3.org/2000/svg">
<path d="M25.4067 5.39596L21.6807 4.85586L7.31352 2.51676C6.46653 2.37989 5.59838 2.44212 4.78086 2.6983C3.96334 2.95448 3.21995 3.39725 2.61215 3.98999L0.197393 6.34624C0.11542 6.42644 0.0559805 6.52595 0.0248145 6.63516C-0.00635153 6.74436 -0.00819147 6.85959 0.0194721 6.96969C0.0471358 7.0798 0.103368 7.18107 0.182741 7.26374C0.262113 7.3464 0.361944 7.40766 0.472595 7.4416L14.5902 11.7729L17.1607 12.5353" fill="#F7B731"/>
<path d="M18 12.3257L19.6148 16.7197L24.0497 30.538C24.0844 30.6461 24.1471 30.7437 24.2316 30.8213C24.3162 30.8989 24.4198 30.9539 24.5324 30.981C24.645 31.008 24.7629 31.0062 24.8746 30.9757C24.9863 30.9453 25.0881 30.8872 25.1701 30.807L27.5835 28.4475C28.1902 27.8534 28.6434 27.1265 28.9055 26.327C29.1677 25.5276 29.2313 24.6786 29.091 23.8504L26.6972 9.79666L26.0948 5.89597L18.0007 12.3257H18Z" fill="#F7B731"/>
<path d="M0.904388 21.966L6.7187 24.4165C6.88148 24.4855 7.00992 24.6144 7.07619 24.7753L9.46937 30.5785L12.1411 27.9341L11.6757 24.0097C11.6639 23.911 11.6751 23.811 11.7084 23.7171C11.7417 23.6232 11.7962 23.5379 11.8679 23.4676L31.2939 4.47914C31.6331 4.08883 31.8606 3.61771 31.9532 3.11364C32.0458 2.60957 32.0004 2.0905 31.8214 1.60917L31.7155 1.22339C31.6539 0.997604 31.5331 0.791414 31.3652 0.625131C31.1972 0.458847 30.9879 0.338206 30.7577 0.275089L30.3672 0.170235C29.8829 -0.0033432 29.3596 -0.0451513 28.8529 0.0492704C28.3463 0.143692 27.8753 0.370802 27.4904 0.706374L8.02658 19.7067C7.95338 19.7782 7.86432 19.8323 7.7663 19.8648C7.66828 19.8973 7.56394 19.9072 7.46134 19.894L3.51813 19.3822L0.904388 21.966Z" fill="url(#paint0_linear_1_148)"/>
<defs>
<linearGradient id="paint0_linear_1_148" x1="0.904388" y1="15.2893" x2="32" y2="15.2893" gradientUnits="userSpaceOnUse">
<stop stop-color="#E52D27"/>
<stop offset="1" stop-color="#B31217"/>
</linearGradient>
</defs>
</svg>
