<svg width="32" height="31" viewBox="0 0 32 31" fill="none" xmlns="http://www.w3.org/2000/svg">
<path fill-rule="evenodd" clip-rule="evenodd" d="M3.2 20.6667L0 31L10.4 27.8205L3.2 20.6667Z" fill="#F7B731"/>
<path fill-rule="evenodd" clip-rule="evenodd" d="M16.8 30.2051C8.40525 30.2051 1.59998 23.4435 1.59998 15.1026C1.59998 6.76165 8.40525 0 16.8 0C25.1947 0 32 6.76165 32 15.1026C32 23.4435 25.1947 30.2051 16.8 30.2051Z" fill="#F7B731"/>
<path fill-rule="evenodd" clip-rule="evenodd" d="M16.8 30.2051C8.40528 30.2051 1.60001 23.4435 1.60001 15.1026C1.60001 6.76165 8.40528 0 16.8 0C25.1947 0 32 6.76165 32 15.1026C32 23.4435 25.1947 30.2051 16.8 30.2051ZM9.60001 9.53846C8.71635 9.53846 8.00001 10.2502 8.00001 11.1282C8.00001 12.0062 8.71635 12.7179 9.60001 12.7179H24C24.8837 12.7179 25.6 12.0062 25.6 11.1282C25.6 10.2502 24.8837 9.53846 24 9.53846H9.60001ZM9.60001 15.8974C8.71635 15.8974 8.00001 16.6092 8.00001 17.4872C8.00001 18.3652 8.71635 19.0769 9.60001 19.0769H17.6C18.4837 19.0769 19.2 18.3652 19.2 17.4872C19.2 16.6092 18.4837 15.8974 17.6 15.8974H9.60001Z" fill="url(#paint0_linear_1_140)"/>
<defs>
<linearGradient id="paint0_linear_1_140" x1="1.60001" y1="15.1026" x2="32" y2="15.1026" gradientUnits="userSpaceOnUse">
<stop stop-color="#E52D27"/>
<stop offset="1" stop-color="#B31217"/>
</linearGradient>
</defs>
</svg>
