<svg width="32" height="31" viewBox="0 0 32 31" fill="none" xmlns="http://www.w3.org/2000/svg">
<path fill-rule="evenodd" clip-rule="evenodd" d="M18.3101 22.065L22.1153 18.2684C23.1663 17.2198 23.4268 15.6179 22.7622 14.2916L22.5466 13.8613C21.8819 12.535 22.1424 10.9331 23.1934 9.88454L27.9116 5.1771C28.2487 4.84075 28.7953 4.84075 29.1324 5.1771C29.198 5.24256 29.2526 5.31814 29.2941 5.40094L31.2001 9.20429C32.6582 12.1139 32.0867 15.628 29.7812 17.9282L19.4242 28.2616C16.9147 30.7655 13.2027 31.6397 9.83576 30.52L5.66716 29.1336C5.21487 28.9832 4.97043 28.4954 5.12119 28.0442C5.16357 27.9173 5.23497 27.8021 5.32973 27.7075L9.90715 23.1405C10.9581 22.092 12.5637 21.832 13.893 22.4952L14.3242 22.7103C15.6536 23.3735 17.2591 23.1135 18.3101 22.065Z" fill="url(#paint0_linear_1_133)"/>
<path d="M20.1542 6.94628L19.8238 10.3756C17.271 10.1308 14.7358 11.0147 12.8878 12.8585C11.0458 14.6962 10.1595 17.2152 10.397 19.7544L6.9589 20.0745C6.627 16.525 7.86972 12.993 10.4462 10.4224C13.0311 7.84336 16.5858 6.60403 20.1542 6.94628ZM20.7585 0.0821027L20.439 3.51246C15.8617 3.0881 11.3178 4.68053 8.00451 7.9863C4.69578 11.2875 3.09943 15.8131 3.51877 20.3742L0.0802095 20.6889C-0.431859 15.1192 1.52101 9.58288 5.56287 5.55022C9.61034 1.51197 15.169 -0.436097 20.7585 0.0821027Z" fill="#F7B731"/>
<defs>
<linearGradient id="paint0_linear_1_133" x1="5.07666" y1="17.9624" x2="32" y2="17.9624" gradientUnits="userSpaceOnUse">
<stop stop-color="#E52D27"/>
<stop offset="1" stop-color="#B31217"/>
</linearGradient>
</defs>
</svg>
