<svg width="32" height="30" viewBox="0 0 32 30" fill="none" xmlns="http://www.w3.org/2000/svg">
<path fill-rule="evenodd" clip-rule="evenodd" d="M5.33332 0H26.6667C27.6485 0 28.4444 0.790088 28.4444 1.76471V19.4118C28.4444 20.3865 27.6485 21.1765 26.6667 21.1765H5.33332C4.35148 21.1765 3.55554 20.3865 3.55554 19.4118V1.76471C3.55554 0.790088 4.35148 0 5.33332 0Z" fill="url(#paint0_linear_1_172)"/>
<path fill-rule="evenodd" clip-rule="evenodd" d="M26.6667 0H5.33332C4.35148 0 3.55554 0.790088 3.55554 1.76471V19.4118C3.55554 20.3865 4.35148 21.1765 5.33332 21.1765H26.6667C27.6485 21.1765 28.4444 20.3865 28.4444 19.4118V1.76471C28.4444 0.790088 27.6485 0 26.6667 0ZM18.6667 4H13.3333C12.597 4 12 4.60803 12 5.35807V13.321C12 13.4908 12.0625 13.6546 12.1752 13.7798C12.424 14.0562 12.8457 14.0749 13.1171 13.8215L15.5495 11.5505C15.8044 11.3125 16.1956 11.3125 16.4505 11.5505L18.8829 13.8215C19.0058 13.9363 19.1665 14 19.3333 14C19.7015 14 20 13.696 20 13.321V5.35807C20 4.60803 19.403 4 18.6667 4Z" fill="#F7B731"/>
<path fill-rule="evenodd" clip-rule="evenodd" d="M1.40933 8.06909L16 18.5294L30.5907 8.06909C30.9887 7.78377 31.5443 7.87273 31.8317 8.26779C31.9411 8.41815 32 8.59892 32 8.7844V26.4706C32 28.4198 30.4081 30 28.4444 30H3.55556C1.59188 30 0 28.4198 0 26.4706V8.7844C0 8.29709 0.397969 7.90204 0.888889 7.90204C1.07574 7.90204 1.25785 7.96049 1.40933 8.06909Z" fill="url(#paint1_linear_1_172)"/>
<defs>
<linearGradient id="paint0_linear_1_172" x1="3.55554" y1="10.5883" x2="28.4444" y2="10.5883" gradientUnits="userSpaceOnUse">
<stop stop-color="#E52D27"/>
<stop offset="1" stop-color="#B31217"/>
</linearGradient>
<linearGradient id="paint1_linear_1_172" x1="0" y1="18.951" x2="32" y2="18.951" gradientUnits="userSpaceOnUse">
<stop stop-color="#E52D27"/>
<stop offset="1" stop-color="#B31217"/>
</linearGradient>
</defs>
</svg>
